<?xml version="1.0" encoding="UTF-8" standalone="no"?>
<!DOCTYPE svg PUBLIC "-//W3C//DTD SVG 1.1//EN"
 "http://www.w3.org/Graphics/SVG/1.1/DTD/svg11.dtd">
<!-- Generated by graphviz version 2.40.1 (20161225.0304)
 -->
<!-- Title: G Pages: 1 -->
<svg width="526pt" height="1327pt"
 viewBox="0.00 0.00 525.50 1327.00" xmlns="http://www.w3.org/2000/svg" xmlns:xlink="http://www.w3.org/1999/xlink">
<g id="graph0" class="graph" transform="scale(1 1) rotate(0) translate(4 1323)">
<title>G</title>
<polygon fill="#ffffff" stroke="transparent" points="-4,4 -4,-1323 521.5038,-1323 521.5038,4 -4,4"/>
<!-- A0 -->
<g id="node1" class="node">
<title>A0</title>
<g transform="translate(259.2805,-908)" style="fill:none;stroke:black;stroke-width:1px"><circle cx="0" cy="-20" r="7.5" />
                <line x1="0" y1="-12.5" x2="0" y2="5" />
                <line x1="-15" y1="-5" x2="15" y2="-5" />
                <line x1="0" y1="5" x2="-15" y2="17" />
                <line x1="0" y1="5" x2="15" y2="17" /></g>
<text text-anchor="middle" x="259.2805" y="-883" font-family="Helvetica,sans-Serif" font-size="10.00" fill="#000000">Unauthenticated</text>
<text text-anchor="middle" x="259.2805" y="-896" font-family="Helvetica,sans-Serif" font-size="10.00" fill="#000000">User</text>
</g>
<!-- A5 -->
<g id="node6" class="node">
<title>A5</title>
<ellipse fill="none" stroke="#000000" cx="446.2359" cy="-959" rx="39.4434" ry="18"/>
<text text-anchor="middle" x="446.2359" y="-956" font-family="Helvetica,sans-Serif" font-size="10.00" fill="#000000">Register</text>
</g>
<!-- A0&#45;&gt;A5 -->
<g id="edge3" class="edge">
<title>A0&#45;&gt;A5</title>
<path fill="none" stroke="#000000" d="M325.194,-924.0384C354.8401,-932.6013 388.5484,-942.3376 412.8507,-949.3571"/>
</g>
<!-- A6 -->
<g id="node7" class="node">
<title>A6</title>
<ellipse fill="none" stroke="#000000" cx="446.2359" cy="-905" rx="31.5864" ry="18"/>
<text text-anchor="middle" x="446.2359" y="-902" font-family="Helvetica,sans-Serif" font-size="10.00" fill="#000000">Login</text>
</g>
<!-- A0&#45;&gt;A6 -->
<g id="edge4" class="edge">
<title>A0&#45;&gt;A6</title>
<path fill="none" stroke="#000000" d="M325.194,-905C355.576,-905 390.2244,-905 414.6429,-905"/>
</g>
<!-- A7 -->
<g id="node8" class="node">
<title>A7</title>
<ellipse fill="none" stroke="#000000" cx="446.2359" cy="-851" rx="51.8379" ry="18"/>
<text text-anchor="middle" x="446.2359" y="-848" font-family="Helvetica,sans-Serif" font-size="10.00" fill="#000000">View Listings</text>
</g>
<!-- A0&#45;&gt;A7 -->
<g id="edge5" class="edge">
<title>A0&#45;&gt;A7</title>
<path fill="none" stroke="#000000" d="M325.194,-885.9616C352.2119,-878.1578 382.6037,-869.3795 406.175,-862.5711"/>
</g>
<!-- A1 -->
<g id="node2" class="node">
<title>A1</title>
<g transform="translate(71.7965,-231)" style="fill:none;stroke:black;stroke-width:1px"><circle cx="0" cy="-20" r="7.5" />
                <line x1="0" y1="-12.5" x2="0" y2="5" />
                <line x1="-15" y1="-5" x2="15" y2="-5" />
                <line x1="0" y1="5" x2="-15" y2="17" />
                <line x1="0" y1="5" x2="15" y2="17" /></g>
<text text-anchor="middle" x="71.7965" y="-206" font-family="Helvetica,sans-Serif" font-size="10.00" fill="#000000">Authenticated User</text>
</g>
<!-- A3 -->
<g id="node4" class="node">
<title>A3</title>
<g transform="translate(259.2805,-686)" style="fill:none;stroke:black;stroke-width:1px"><circle cx="0" cy="-20" r="7.5" />
                <line x1="0" y1="-12.5" x2="0" y2="5" />
                <line x1="-15" y1="-5" x2="15" y2="-5" />
                <line x1="0" y1="5" x2="-15" y2="17" />
                <line x1="0" y1="5" x2="15" y2="17" /></g>
<text text-anchor="middle" x="259.2805" y="-661" font-family="Helvetica,sans-Serif" font-size="10.00" fill="#000000">Buyer</text>
</g>
<!-- A1&#45;&gt;A3 -->
<g id="edge1" class="edge">
<title>A1&#45;&gt;A3</title>
<path fill="none" stroke="#000000" d="M86.6648,-270.0834C120.5084,-352.2175 203.2386,-552.9933 240.5209,-643.4728"/>
<polygon fill="none" stroke="#000000" points="237.3648,-645.0005 244.4107,-652.9129 243.8369,-642.3336 237.3648,-645.0005"/>
</g>
<!-- A4 -->
<g id="node5" class="node">
<title>A4</title>
<g transform="translate(259.2805,-411)" style="fill:none;stroke:black;stroke-width:1px"><circle cx="0" cy="-20" r="7.5" />
                <line x1="0" y1="-12.5" x2="0" y2="5" />
                <line x1="-15" y1="-5" x2="15" y2="-5" />
                <line x1="0" y1="5" x2="-15" y2="17" />
                <line x1="0" y1="5" x2="15" y2="17" /></g>
<text text-anchor="middle" x="259.2805" y="-386" font-family="Helvetica,sans-Serif" font-size="10.00" fill="#000000">Seller</text>
</g>
<!-- A1&#45;&gt;A4 -->
<g id="edge2" class="edge">
<title>A1&#45;&gt;A4</title>
<path fill="none" stroke="#000000" d="M100.4798,-270.2562C123.9301,-298.7419 158.7863,-338.5522 193.593,-369 198.3725,-373.181 203.5519,-377.3105 208.8337,-381.2723"/>
<polygon fill="none" stroke="#000000" points="207.0302,-384.2886 217.1752,-387.3433 211.1495,-378.6289 207.0302,-384.2886"/>
</g>
<!-- A8 -->
<g id="node9" class="node">
<title>A8</title>
<ellipse fill="none" stroke="#000000" cx="259.2805" cy="-342" rx="35.4469" ry="18"/>
<text text-anchor="middle" x="259.2805" y="-339" font-family="Helvetica,sans-Serif" font-size="10.00" fill="#000000">Logout</text>
</g>
<!-- A1&#45;&gt;A8 -->
<g id="edge6" class="edge">
<title>A1&#45;&gt;A8</title>
<path fill="none" stroke="#000000" d="M121.386,-270.1966C142.9692,-285.0939 168.9255,-301.8923 193.593,-315 205.2433,-321.1907 218.6302,-326.9232 230.2666,-331.499"/>
</g>
<!-- A9 -->
<g id="node10" class="node">
<title>A9</title>
<ellipse fill="none" stroke="#000000" cx="259.2805" cy="-288" rx="54.8597" ry="18"/>
<text text-anchor="middle" x="259.2805" y="-285" font-family="Helvetica,sans-Serif" font-size="10.00" fill="#000000">Update Profile</text>
</g>
<!-- A1&#45;&gt;A9 -->
<g id="edge7" class="edge">
<title>A1&#45;&gt;A9</title>
<path fill="none" stroke="#000000" d="M143.4787,-254.6462C168.5985,-261.8814 195.959,-269.7618 217.7749,-276.0454"/>
</g>
<!-- A10 -->
<g id="node11" class="node">
<title>A10</title>
<ellipse fill="none" stroke="#000000" cx="259.2805" cy="-234" rx="58.8743" ry="18"/>
<text text-anchor="middle" x="259.2805" y="-231" font-family="Helvetica,sans-Serif" font-size="10.00" fill="#000000">View Messages</text>
</g>
<!-- A1&#45;&gt;A10 -->
<g id="edge8" class="edge">
<title>A1&#45;&gt;A10</title>
<path fill="none" stroke="#000000" d="M143.4787,-234C162.1894,-234 182.1431,-234 200.1228,-234"/>
</g>
<!-- A11 -->
<g id="node12" class="node">
<title>A11</title>
<ellipse fill="none" stroke="#000000" cx="259.2805" cy="-180" rx="59.8948" ry="18"/>
<text text-anchor="middle" x="259.2805" y="-177" font-family="Helvetica,sans-Serif" font-size="10.00" fill="#000000">Send Messages</text>
</g>
<!-- A1&#45;&gt;A11 -->
<g id="edge9" class="edge">
<title>A1&#45;&gt;A11</title>
<path fill="none" stroke="#000000" d="M143.4787,-213.3538C167.8749,-206.3271 194.3845,-198.6916 215.8759,-192.5016"/>
</g>
<!-- A12 -->
<g id="node13" class="node">
<title>A12</title>
<ellipse fill="none" stroke="#000000" cx="259.2805" cy="-126" rx="64.0596" ry="18"/>
<text text-anchor="middle" x="259.2805" y="-123" font-family="Helvetica,sans-Serif" font-size="10.00" fill="#000000">View Notifications</text>
</g>
<!-- A1&#45;&gt;A12 -->
<g id="edge10" class="edge">
<title>A1&#45;&gt;A12</title>
<path fill="none" stroke="#000000" d="M121.386,-197.8034C142.9692,-182.9061 168.9255,-166.1077 193.593,-153 202.0857,-148.4872 211.5013,-144.2178 220.4889,-140.4625"/>
</g>
<!-- A13 -->
<g id="node14" class="node">
<title>A13</title>
<ellipse fill="none" stroke="#000000" cx="259.2805" cy="-72" rx="51.6632" ry="18"/>
<text text-anchor="middle" x="259.2805" y="-69" font-family="Helvetica,sans-Serif" font-size="10.00" fill="#000000">View Profiles</text>
</g>
<!-- A1&#45;&gt;A13 -->
<g id="edge11" class="edge">
<title>A1&#45;&gt;A13</title>
<path fill="none" stroke="#000000" d="M97.2346,-197.7499C119.714,-167.9199 154.8748,-126.2559 193.593,-99 201.9613,-93.1091 211.8082,-88.1999 221.2952,-84.2551"/>
</g>
<!-- A14 -->
<g id="node15" class="node">
<title>A14</title>
<ellipse fill="none" stroke="#000000" cx="259.2805" cy="-18" rx="50.0088" ry="18"/>
<text text-anchor="middle" x="259.2805" y="-15" font-family="Helvetica,sans-Serif" font-size="10.00" fill="#000000">Report Bugs</text>
</g>
<!-- A1&#45;&gt;A14 -->
<g id="edge12" class="edge">
<title>A1&#45;&gt;A14</title>
<path fill="none" stroke="#000000" d="M86.8678,-197.9744C106.0506,-156.053 142.8892,-87.2042 193.593,-45 201.3638,-38.5319 210.896,-33.4372 220.2638,-29.4997"/>
</g>
<!-- A2 -->
<g id="node3" class="node">
<title>A2</title>
<g transform="translate(71.7965,-1109)" style="fill:none;stroke:black;stroke-width:1px"><circle cx="0" cy="-20" r="7.5" />
                <line x1="0" y1="-12.5" x2="0" y2="5" />
                <line x1="-15" y1="-5" x2="15" y2="-5" />
                <line x1="0" y1="5" x2="-15" y2="17" />
                <line x1="0" y1="5" x2="15" y2="17" /></g>
<text text-anchor="middle" x="71.7965" y="-1084" font-family="Helvetica,sans-Serif" font-size="10.00" fill="#000000">Admin</text>
</g>
<!-- A26 -->
<g id="node27" class="node">
<title>A26</title>
<ellipse fill="none" stroke="#000000" cx="259.2805" cy="-1247" rx="55.8609" ry="18"/>
<text text-anchor="middle" x="259.2805" y="-1244" font-family="Helvetica,sans-Serif" font-size="10.00" fill="#000000">Manage Users</text>
</g>
<!-- A2&#45;&gt;A26 -->
<g id="edge25" class="edge">
<title>A2&#45;&gt;A26</title>
<path fill="none" stroke="#000000" d="M106.0087,-1148.0419C129.1216,-1170.8785 161.2219,-1199.8081 193.593,-1220 202.0668,-1225.2857 211.7545,-1229.9295 221.0395,-1233.8086"/>
</g>
<!-- A27 -->
<g id="node28" class="node">
<title>A27</title>
<ellipse fill="none" stroke="#000000" cx="259.2805" cy="-1193" rx="60.7263" ry="18"/>
<text text-anchor="middle" x="259.2805" y="-1190" font-family="Helvetica,sans-Serif" font-size="10.00" fill="#000000">Manage Listings</text>
</g>
<!-- A2&#45;&gt;A27 -->
<g id="edge26" class="edge">
<title>A2&#45;&gt;A27</title>
<path fill="none" stroke="#000000" d="M115.3588,-1131.6595C138.5273,-1142.0277 167.5356,-1154.8707 193.593,-1166 203.2311,-1170.1165 213.7106,-1174.476 223.4102,-1178.4633"/>
</g>
<!-- A28 -->
<g id="node29" class="node">
<title>A28</title>
<ellipse fill="none" stroke="#000000" cx="259.2805" cy="-1139" rx="52.6729" ry="18"/>
<text text-anchor="middle" x="259.2805" y="-1136" font-family="Helvetica,sans-Serif" font-size="10.00" fill="#000000">View Reports</text>
</g>
<!-- A2&#45;&gt;A28 -->
<g id="edge27" class="edge">
<title>A2&#45;&gt;A28</title>
<path fill="none" stroke="#000000" d="M115.2803,-1118.2622C143.8381,-1122.3749 181.2308,-1127.7599 210.7549,-1132.0117"/>
</g>
<!-- A29 -->
<g id="node30" class="node">
<title>A29</title>
<ellipse fill="none" stroke="#000000" cx="259.2805" cy="-1085" rx="50.6584" ry="18"/>
<text text-anchor="middle" x="259.2805" y="-1082" font-family="Helvetica,sans-Serif" font-size="10.00" fill="#000000">View Tickets</text>
</g>
<!-- A2&#45;&gt;A29 -->
<g id="edge28" class="edge">
<title>A2&#45;&gt;A29</title>
<path fill="none" stroke="#000000" d="M115.2803,-1105.7378C144.2708,-1101.5628 182.366,-1096.0766 212.0914,-1091.7958"/>
</g>
<!-- A30 -->
<g id="node31" class="node">
<title>A30</title>
<ellipse fill="none" stroke="#000000" cx="259.2805" cy="-1031" rx="59.0366" ry="18"/>
<text text-anchor="middle" x="259.2805" y="-1028" font-family="Helvetica,sans-Serif" font-size="10.00" fill="#000000">Resolve Tickets</text>
</g>
<!-- A2&#45;&gt;A30 -->
<g id="edge29" class="edge">
<title>A2&#45;&gt;A30</title>
<path fill="none" stroke="#000000" d="M115.3588,-1092.3405C138.5273,-1081.9723 167.5356,-1069.1293 193.593,-1058 203.2311,-1053.8835 213.7106,-1049.524 223.4102,-1045.5367"/>
</g>
<!-- A31 -->
<g id="node32" class="node">
<title>A31</title>
<ellipse fill="none" stroke="#000000" cx="259.2805" cy="-977" rx="58.8827" ry="18"/>
<text text-anchor="middle" x="259.2805" y="-974" font-family="Helvetica,sans-Serif" font-size="10.00" fill="#000000">Award Bounties</text>
</g>
<!-- A2&#45;&gt;A31 -->
<g id="edge30" class="edge">
<title>A2&#45;&gt;A31</title>
<path fill="none" stroke="#000000" d="M106.0087,-1075.9581C129.1216,-1053.1215 161.2219,-1024.1919 193.593,-1004 201.753,-998.9101 211.0386,-994.4153 220.0063,-990.6256"/>
</g>
<!-- A3&#45;&gt;A7 -->
<g id="edge18" class="edge">
<title>A3&#45;&gt;A7</title>
<path fill="none" stroke="#000000" d="M282.6601,-725.2839C303.6508,-755.3387 336.9517,-797.3042 374.968,-824 384.1718,-830.4631 395.1206,-835.6109 405.641,-839.6043"/>
</g>
<!-- A15 -->
<g id="node16" class="node">
<title>A15</title>
<ellipse fill="none" stroke="#000000" cx="446.2359" cy="-797" rx="61.063" ry="18"/>
<text text-anchor="middle" x="446.2359" y="-794" font-family="Helvetica,sans-Serif" font-size="10.00" fill="#000000">Search Products</text>
</g>
<!-- A3&#45;&gt;A15 -->
<g id="edge13" class="edge">
<title>A3&#45;&gt;A15</title>
<path fill="none" stroke="#000000" d="M301.5937,-722.4447C322.8157,-738.2075 349.3931,-756.4738 374.968,-770 384.4418,-775.0105 395.0552,-779.5534 405.1388,-783.4229"/>
</g>
<!-- A16 -->
<g id="node17" class="node">
<title>A16</title>
<ellipse fill="none" stroke="#000000" cx="446.2359" cy="-743" rx="52.0124" ry="18"/>
<text text-anchor="middle" x="446.2359" y="-740" font-family="Helvetica,sans-Serif" font-size="10.00" fill="#000000">View Product</text>
</g>
<!-- A3&#45;&gt;A16 -->
<g id="edge14" class="edge">
<title>A3&#45;&gt;A16</title>
<path fill="none" stroke="#000000" d="M301.7036,-701.2534C332.9464,-710.2776 375.1652,-722.472 405.9031,-731.3503"/>
</g>
<!-- A17 -->
<g id="node18" class="node">
<title>A17</title>
<ellipse fill="none" stroke="#000000" cx="446.2359" cy="-689" rx="46.6485" ry="18"/>
<text text-anchor="middle" x="446.2359" y="-686" font-family="Helvetica,sans-Serif" font-size="10.00" fill="#000000">Make Offer</text>
</g>
<!-- A3&#45;&gt;A17 -->
<g id="edge15" class="edge">
<title>A3&#45;&gt;A17</title>
<path fill="none" stroke="#000000" d="M301.7036,-689C330.7917,-689 369.3941,-689 399.3871,-689"/>
</g>
<!-- A18 -->
<g id="node19" class="node">
<title>A18</title>
<ellipse fill="none" stroke="#000000" cx="446.2359" cy="-635" rx="63.8998" ry="18"/>
<text text-anchor="middle" x="446.2359" y="-632" font-family="Helvetica,sans-Serif" font-size="10.00" fill="#000000">Favorite Products</text>
</g>
<!-- A3&#45;&gt;A18 -->
<g id="edge16" class="edge">
<title>A3&#45;&gt;A18</title>
<path fill="none" stroke="#000000" d="M301.7036,-676.7466C331.4381,-668.1581 371.1145,-656.698 401.3737,-647.958"/>
</g>
<!-- A19 -->
<g id="node20" class="node">
<title>A19</title>
<ellipse fill="none" stroke="#000000" cx="446.2359" cy="-581" rx="56.0209" ry="18"/>
<text text-anchor="middle" x="446.2359" y="-578" font-family="Helvetica,sans-Serif" font-size="10.00" fill="#000000">View Favorites</text>
</g>
<!-- A3&#45;&gt;A19 -->
<g id="edge17" class="edge">
<title>A3&#45;&gt;A19</title>
<path fill="none" stroke="#000000" d="M301.5937,-655.5553C322.8157,-639.7925 349.3931,-621.5262 374.968,-608 384.9096,-602.742 396.1063,-597.9991 406.6285,-594.0088"/>
</g>
<!-- A20 -->
<g id="node21" class="node">
<title>A20</title>
<ellipse fill="none" stroke="#000000" cx="446.2359" cy="-527" rx="48.6643" ry="18"/>
<text text-anchor="middle" x="446.2359" y="-524" font-family="Helvetica,sans-Serif" font-size="10.00" fill="#000000">List Product</text>
</g>
<!-- A4&#45;&gt;A20 -->
<g id="edge19" class="edge">
<title>A4&#45;&gt;A20</title>
<path fill="none" stroke="#000000" d="M301.5743,-449.884C322.6842,-466.6088 349.1718,-485.8841 374.968,-500 385.6464,-505.8433 397.8539,-510.9738 409.1125,-515.1491"/>
</g>
<!-- A21 -->
<g id="node22" class="node">
<title>A21</title>
<ellipse fill="none" stroke="#000000" cx="446.2359" cy="-473" rx="46.6485" ry="18"/>
<text text-anchor="middle" x="446.2359" y="-470" font-family="Helvetica,sans-Serif" font-size="10.00" fill="#000000">View Sales</text>
</g>
<!-- A4&#45;&gt;A21 -->
<g id="edge20" class="edge">
<title>A4&#45;&gt;A21</title>
<path fill="none" stroke="#000000" d="M301.7036,-427.388C334.3469,-437.6897 378.9724,-451.7728 409.9656,-461.5537"/>
</g>
<!-- A22 -->
<g id="node23" class="node">
<title>A22</title>
<ellipse fill="none" stroke="#000000" cx="446.2359" cy="-414" rx="71.0365" ry="22.7556"/>
<text text-anchor="middle" x="446.2359" y="-417" font-family="Helvetica,sans-Serif" font-size="10.00" fill="#000000">Mark Product as</text>
<text text-anchor="middle" x="446.2359" y="-405" font-family="Helvetica,sans-Serif" font-size="10.00" fill="#000000">Sold</text>
</g>
<!-- A4&#45;&gt;A22 -->
<g id="edge21" class="edge">
<title>A4&#45;&gt;A22</title>
<path fill="none" stroke="#000000" d="M301.7036,-414C323.2503,-414 350.0175,-414 374.639,-414"/>
</g>
<!-- A23 -->
<g id="node24" class="node">
<title>A23</title>
<ellipse fill="none" stroke="#000000" cx="446.2359" cy="-355" rx="56.8658" ry="18"/>
<text text-anchor="middle" x="446.2359" y="-352" font-family="Helvetica,sans-Serif" font-size="10.00" fill="#000000">Create Listings</text>
</g>
<!-- A4&#45;&gt;A23 -->
<g id="edge22" class="edge">
<title>A4&#45;&gt;A23</title>
<path fill="none" stroke="#000000" d="M301.7036,-400.612C332.9464,-390.7523 375.1652,-377.4287 405.9031,-367.7283"/>
</g>
<!-- A24 -->
<g id="node25" class="node">
<title>A24</title>
<ellipse fill="none" stroke="#000000" cx="446.2359" cy="-301" rx="49.4992" ry="18"/>
<text text-anchor="middle" x="446.2359" y="-298" font-family="Helvetica,sans-Serif" font-size="10.00" fill="#000000">Edit Listings</text>
</g>
<!-- A4&#45;&gt;A24 -->
<g id="edge23" class="edge">
<title>A4&#45;&gt;A24</title>
<path fill="none" stroke="#000000" d="M301.3614,-385.9661C309.2902,-380.4612 317.4493,-374.6416 324.968,-369 347.9546,-351.752 350.0928,-342.391 374.968,-328 385.3899,-321.9707 397.4077,-316.8161 408.57,-312.6764"/>
</g>
<!-- A25 -->
<g id="node26" class="node">
<title>A25</title>
<ellipse fill="none" stroke="#000000" cx="446.2359" cy="-247" rx="56.0317" ry="18"/>
<text text-anchor="middle" x="446.2359" y="-244" font-family="Helvetica,sans-Serif" font-size="10.00" fill="#000000">Delete Listings</text>
</g>
<!-- A4&#45;&gt;A25 -->
<g id="edge24" class="edge">
<title>A4&#45;&gt;A25</title>
<path fill="none" stroke="#000000" d="M301.3625,-389.6923C309.8089,-383.6245 318.1668,-376.6409 324.968,-369 356.6911,-333.3603 339.2304,-305.6128 374.968,-274 382.5988,-267.2499 392.0868,-262.1177 401.6244,-258.2409"/>
</g>
<!-- A32 -->
<g id="node33" class="node">
<title>A32</title>
<ellipse fill="none" stroke="#000000" cx="446.2359" cy="-1301" rx="60.7275" ry="18"/>
<text text-anchor="middle" x="446.2359" y="-1298" font-family="Helvetica,sans-Serif" font-size="10.00" fill="#000000">Delete Accounts</text>
</g>
<!-- A26&#45;&gt;A32 -->
<g id="edge31" class="edge">
<title>A26&#45;&gt;A32</title>
<path fill="none" stroke="#000000" d="M301.2369,-1259.1187C331.381,-1267.8254 371.9202,-1279.5347 402.4695,-1288.3586"/>
</g>
<!-- A33 -->
<g id="node34" class="node">
<title>A33</title>
<ellipse fill="none" stroke="#000000" cx="446.2359" cy="-1247" rx="64.0608" ry="18"/>
<text text-anchor="middle" x="446.2359" y="-1244" font-family="Helvetica,sans-Serif" font-size="10.00" fill="#000000">Block from Listing</text>
</g>
<!-- A26&#45;&gt;A33 -->
<g id="edge32" class="edge">
<title>A26&#45;&gt;A33</title>
<path fill="none" stroke="#000000" d="M315.3733,-1247C336.2392,-1247 360.0806,-1247 381.6469,-1247"/>
</g>
<!-- A34 -->
<g id="node35" class="node">
<title>A34</title>
<ellipse fill="none" stroke="#000000" cx="446.2359" cy="-1193" rx="57.0401" ry="18"/>
<text text-anchor="middle" x="446.2359" y="-1190" font-family="Helvetica,sans-Serif" font-size="10.00" fill="#000000">Mutate Ratings</text>
</g>
<!-- A26&#45;&gt;A34 -->
<g id="edge33" class="edge">
<title>A26&#45;&gt;A34</title>
<path fill="none" stroke="#000000" d="M301.2369,-1234.8813C331.8117,-1226.0502 373.0806,-1214.1301 403.7726,-1205.265"/>
</g>
</g>
</svg>
