<?xml version="1.0" encoding="UTF-8" standalone="no"?>
<!DOCTYPE svg PUBLIC "-//W3C//DTD SVG 1.1//EN"
 "http://www.w3.org/Graphics/SVG/1.1/DTD/svg11.dtd">
<!-- Generated by graphviz version 2.40.1 (20161225.0304)
 -->
<!-- Title: G Pages: 1 -->
<svg width="523pt" height="827pt"
 viewBox="0.00 0.00 522.69 827.00" xmlns="http://www.w3.org/2000/svg" xmlns:xlink="http://www.w3.org/1999/xlink">
<g id="graph0" class="graph" transform="scale(1 1) rotate(0) translate(4 823)">
<title>G</title>
<polygon fill="#ffffff" stroke="transparent" points="-4,4 -4,-823 518.6876,-823 518.6876,4 -4,4"/>
<!-- A0 -->
<g id="node1" class="node">
<title>A0</title>
<g transform="translate(71.7965,-48)" style="fill:none;stroke:black;stroke-width:1px"><circle cx="0" cy="-20" r="7.5" />
                <line x1="0" y1="-12.5" x2="0" y2="5" />
                <line x1="-15" y1="-5" x2="15" y2="-5" />
                <line x1="0" y1="5" x2="-15" y2="17" />
                <line x1="0" y1="5" x2="15" y2="17" /></g>
<text text-anchor="middle" x="71.7965" y="-23" font-family="Helvetica,sans-Serif" font-size="10.00" fill="#000000">Unauthenticated</text>
<text text-anchor="middle" x="71.7965" y="-36" font-family="Helvetica,sans-Serif" font-size="10.00" fill="#000000">User</text>
</g>
<!-- A5 -->
<g id="node6" class="node">
<title>A5</title>
<ellipse fill="none" stroke="#000000" cx="257.8724" cy="-72" rx="39.4434" ry="18"/>
<text text-anchor="middle" x="257.8724" y="-69" font-family="Helvetica,sans-Serif" font-size="10.00" fill="#000000">Register</text>
</g>
<!-- A0&#45;&gt;A5 -->
<g id="edge3" class="edge">
<title>A0&#45;&gt;A5</title>
<path fill="none" stroke="#000000" d="M137.6618,-54.5572C165.3668,-58.5772 196.5957,-63.1086 220.2789,-66.5451"/>
</g>
<!-- A6 -->
<g id="node7" class="node">
<title>A6</title>
<ellipse fill="none" stroke="#000000" cx="257.8724" cy="-18" rx="31.5864" ry="18"/>
<text text-anchor="middle" x="257.8724" y="-15" font-family="Helvetica,sans-Serif" font-size="10.00" fill="#000000">Login</text>
</g>
<!-- A0&#45;&gt;A6 -->
<g id="edge4" class="edge">
<title>A0&#45;&gt;A6</title>
<path fill="none" stroke="#000000" d="M137.6618,-35.4428C168.1896,-31.0132 202.9959,-25.9627 227.2712,-22.4403"/>
</g>
<!-- A1 -->
<g id="node2" class="node">
<title>A1</title>
<g transform="translate(71.7965,-375)" style="fill:none;stroke:black;stroke-width:1px"><circle cx="0" cy="-20" r="7.5" />
                <line x1="0" y1="-12.5" x2="0" y2="5" />
                <line x1="-15" y1="-5" x2="15" y2="-5" />
                <line x1="0" y1="5" x2="-15" y2="17" />
                <line x1="0" y1="5" x2="15" y2="17" /></g>
<text text-anchor="middle" x="71.7965" y="-350" font-family="Helvetica,sans-Serif" font-size="10.00" fill="#000000">Authenticated User</text>
</g>
<!-- A3 -->
<g id="node4" class="node">
<title>A3</title>
<g transform="translate(257.8724,-663)" style="fill:none;stroke:black;stroke-width:1px"><circle cx="0" cy="-20" r="7.5" />
                <line x1="0" y1="-12.5" x2="0" y2="5" />
                <line x1="-15" y1="-5" x2="15" y2="-5" />
                <line x1="0" y1="5" x2="-15" y2="17" />
                <line x1="0" y1="5" x2="15" y2="17" /></g>
<text text-anchor="middle" x="257.8724" y="-638" font-family="Helvetica,sans-Serif" font-size="10.00" fill="#000000">Buyer</text>
</g>
<!-- A1&#45;&gt;A3 -->
<g id="edge1" class="edge">
<title>A1&#45;&gt;A3</title>
<path fill="none" stroke="#000000" d="M95.1747,-414.1838C129.1555,-466.7777 192.1445,-564.2693 228.9842,-621.2881"/>
<polygon fill="none" stroke="#000000" points="226.0768,-623.2377 234.4434,-629.7377 231.9564,-619.4389 226.0768,-623.2377"/>
</g>
<!-- A4 -->
<g id="node5" class="node">
<title>A4</title>
<g transform="translate(257.8724,-501)" style="fill:none;stroke:black;stroke-width:1px"><circle cx="0" cy="-20" r="7.5" />
                <line x1="0" y1="-12.5" x2="0" y2="5" />
                <line x1="-15" y1="-5" x2="15" y2="-5" />
                <line x1="0" y1="5" x2="-15" y2="17" />
                <line x1="0" y1="5" x2="15" y2="17" /></g>
<text text-anchor="middle" x="257.8724" y="-476" font-family="Helvetica,sans-Serif" font-size="10.00" fill="#000000">Seller</text>
</g>
<!-- A1&#45;&gt;A4 -->
<g id="edge2" class="edge">
<title>A1&#45;&gt;A4</title>
<path fill="none" stroke="#000000" d="M125.1184,-414.1065C150.9765,-431.6162 181.8736,-452.5379 207.3514,-469.79"/>
<polygon fill="none" stroke="#000000" points="205.5261,-472.781 215.7688,-475.4898 209.451,-466.9848 205.5261,-472.781"/>
</g>
<!-- A7 -->
<g id="node8" class="node">
<title>A7</title>
<ellipse fill="none" stroke="#000000" cx="257.8724" cy="-432" rx="35.4469" ry="18"/>
<text text-anchor="middle" x="257.8724" y="-429" font-family="Helvetica,sans-Serif" font-size="10.00" fill="#000000">Logout</text>
</g>
<!-- A1&#45;&gt;A7 -->
<g id="edge5" class="edge">
<title>A1&#45;&gt;A7</title>
<path fill="none" stroke="#000000" d="M143.4721,-398.8006C172.3432,-407.1791 204.1154,-416.3995 226.8347,-422.9927"/>
</g>
<!-- A8 -->
<g id="node9" class="node">
<title>A8</title>
<ellipse fill="none" stroke="#000000" cx="257.8724" cy="-378" rx="54.8597" ry="18"/>
<text text-anchor="middle" x="257.8724" y="-375" font-family="Helvetica,sans-Serif" font-size="10.00" fill="#000000">Update Profile</text>
</g>
<!-- A1&#45;&gt;A8 -->
<g id="edge6" class="edge">
<title>A1&#45;&gt;A8</title>
<path fill="none" stroke="#000000" d="M143.4721,-378C163.129,-378 184.1308,-378 202.7045,-378"/>
</g>
<!-- A9 -->
<g id="node10" class="node">
<title>A9</title>
<ellipse fill="none" stroke="#000000" cx="257.8724" cy="-324" rx="58.8743" ry="18"/>
<text text-anchor="middle" x="257.8724" y="-321" font-family="Helvetica,sans-Serif" font-size="10.00" fill="#000000">View Messages</text>
</g>
<!-- A1&#45;&gt;A9 -->
<g id="edge7" class="edge">
<title>A1&#45;&gt;A9</title>
<path fill="none" stroke="#000000" d="M143.4721,-357.1994C167.6337,-350.1876 193.8272,-342.5862 215.046,-336.4284"/>
</g>
<!-- A10 -->
<g id="node11" class="node">
<title>A10</title>
<ellipse fill="none" stroke="#000000" cx="257.8724" cy="-270" rx="59.8948" ry="18"/>
<text text-anchor="middle" x="257.8724" y="-267" font-family="Helvetica,sans-Serif" font-size="10.00" fill="#000000">Send Messages</text>
</g>
<!-- A1&#45;&gt;A10 -->
<g id="edge8" class="edge">
<title>A1&#45;&gt;A10</title>
<path fill="none" stroke="#000000" d="M121.4353,-341.8957C143.0268,-327.014 168.976,-310.2023 193.593,-297 202.1265,-292.4234 211.6039,-288.0705 220.6018,-284.2483"/>
</g>
<!-- A11 -->
<g id="node12" class="node">
<title>A11</title>
<ellipse fill="none" stroke="#000000" cx="257.8724" cy="-216" rx="64.0596" ry="18"/>
<text text-anchor="middle" x="257.8724" y="-213" font-family="Helvetica,sans-Serif" font-size="10.00" fill="#000000">View Notifications</text>
</g>
<!-- A1&#45;&gt;A11 -->
<g id="edge9" class="edge">
<title>A1&#45;&gt;A11</title>
<path fill="none" stroke="#000000" d="M97.2886,-341.8262C119.8009,-312.0428 154.9798,-270.4044 193.593,-243 200.7,-237.9561 208.8939,-233.6136 217.0012,-229.977"/>
</g>
<!-- A2 -->
<g id="node3" class="node">
<title>A2</title>
<g transform="translate(257.8724,-141)" style="fill:none;stroke:black;stroke-width:1px"><circle cx="0" cy="-20" r="7.5" />
                <line x1="0" y1="-12.5" x2="0" y2="5" />
                <line x1="-15" y1="-5" x2="15" y2="-5" />
                <line x1="0" y1="5" x2="-15" y2="17" />
                <line x1="0" y1="5" x2="15" y2="17" /></g>
<text text-anchor="middle" x="257.8724" y="-116" font-family="Helvetica,sans-Serif" font-size="10.00" fill="#000000">Admin</text>
</g>
<!-- A18 -->
<g id="node19" class="node">
<title>A18</title>
<ellipse fill="none" stroke="#000000" cx="443.4197" cy="-319" rx="60.7263" ry="18"/>
<text text-anchor="middle" x="443.4197" y="-316" font-family="Helvetica,sans-Serif" font-size="10.00" fill="#000000">Manage Listings</text>
</g>
<!-- A2&#45;&gt;A18 -->
<g id="edge22" class="edge">
<title>A2&#45;&gt;A18</title>
<path fill="none" stroke="#000000" d="M301.3437,-172.5664C308.4916,-177.7864 315.674,-183.3704 322.1518,-189 364.3185,-225.6453 407.4798,-275.4579 429.1505,-301.4998"/>
</g>
<!-- A21 -->
<g id="node22" class="node">
<title>A21</title>
<ellipse fill="none" stroke="#000000" cx="443.4197" cy="-198" rx="55.8609" ry="18"/>
<text text-anchor="middle" x="443.4197" y="-195" font-family="Helvetica,sans-Serif" font-size="10.00" fill="#000000">Manage Users</text>
</g>
<!-- A2&#45;&gt;A21 -->
<g id="edge19" class="edge">
<title>A2&#45;&gt;A21</title>
<path fill="none" stroke="#000000" d="M301.375,-156.6606C331.6882,-165.4827 371.8879,-177.182 401.7838,-185.8827"/>
</g>
<!-- A22 -->
<g id="node23" class="node">
<title>A22</title>
<ellipse fill="none" stroke="#000000" cx="443.4197" cy="-144" rx="63.913" ry="18"/>
<text text-anchor="middle" x="443.4197" y="-141" font-family="Helvetica,sans-Serif" font-size="10.00" fill="#000000">Manage Products</text>
</g>
<!-- A2&#45;&gt;A22 -->
<g id="edge20" class="edge">
<title>A2&#45;&gt;A22</title>
<path fill="none" stroke="#000000" d="M301.375,-144C324.6187,-144 353.6752,-144 379.4421,-144"/>
</g>
<!-- A23 -->
<g id="node24" class="node">
<title>A23</title>
<ellipse fill="none" stroke="#000000" cx="443.4197" cy="-90" rx="52.6729" ry="18"/>
<text text-anchor="middle" x="443.4197" y="-87" font-family="Helvetica,sans-Serif" font-size="10.00" fill="#000000">View Reports</text>
</g>
<!-- A2&#45;&gt;A23 -->
<g id="edge21" class="edge">
<title>A2&#45;&gt;A23</title>
<path fill="none" stroke="#000000" d="M301.375,-131.3394C332.1166,-122.3926 373.0263,-110.4867 403.0452,-101.7502"/>
</g>
<!-- A12 -->
<g id="node13" class="node">
<title>A12</title>
<ellipse fill="none" stroke="#000000" cx="443.4197" cy="-801" rx="61.063" ry="18"/>
<text text-anchor="middle" x="443.4197" y="-798" font-family="Helvetica,sans-Serif" font-size="10.00" fill="#000000">Search Products</text>
</g>
<!-- A3&#45;&gt;A12 -->
<g id="edge10" class="edge">
<title>A3&#45;&gt;A12</title>
<path fill="none" stroke="#000000" d="M289.1605,-702.2068C310.6264,-725.2567 340.8057,-754.3629 372.1518,-774 380.8976,-779.4789 390.93,-784.1256 400.6532,-787.9387"/>
</g>
<!-- A13 -->
<g id="node14" class="node">
<title>A13</title>
<ellipse fill="none" stroke="#000000" cx="443.4197" cy="-747" rx="52.0124" ry="18"/>
<text text-anchor="middle" x="443.4197" y="-744" font-family="Helvetica,sans-Serif" font-size="10.00" fill="#000000">View Product</text>
</g>
<!-- A3&#45;&gt;A13 -->
<g id="edge11" class="edge">
<title>A3&#45;&gt;A13</title>
<path fill="none" stroke="#000000" d="M300.1108,-686.9391C321.5133,-697.2978 348.0174,-709.7453 372.1518,-720 383.4768,-724.812 395.9789,-729.691 407.3083,-733.9534"/>
</g>
<!-- A14 -->
<g id="node15" class="node">
<title>A14</title>
<ellipse fill="none" stroke="#000000" cx="443.4197" cy="-693" rx="46.6485" ry="18"/>
<text text-anchor="middle" x="443.4197" y="-690" font-family="Helvetica,sans-Serif" font-size="10.00" fill="#000000">Make Offer</text>
</g>
<!-- A3&#45;&gt;A14 -->
<g id="edge12" class="edge">
<title>A3&#45;&gt;A14</title>
<path fill="none" stroke="#000000" d="M300.4407,-672.1943C330.1845,-676.5225 369.7807,-682.2844 399.7614,-686.647"/>
</g>
<!-- A15 -->
<g id="node16" class="node">
<title>A15</title>
<ellipse fill="none" stroke="#000000" cx="443.4197" cy="-639" rx="63.8998" ry="18"/>
<text text-anchor="middle" x="443.4197" y="-636" font-family="Helvetica,sans-Serif" font-size="10.00" fill="#000000">Favorite Products</text>
</g>
<!-- A3&#45;&gt;A15 -->
<g id="edge13" class="edge">
<title>A3&#45;&gt;A15</title>
<path fill="none" stroke="#000000" d="M300.4407,-659.8057C325.9048,-656.1002 358.5901,-651.344 386.2809,-647.3146"/>
</g>
<!-- A16 -->
<g id="node17" class="node">
<title>A16</title>
<ellipse fill="none" stroke="#000000" cx="443.4197" cy="-585" rx="56.0209" ry="18"/>
<text text-anchor="middle" x="443.4197" y="-582" font-family="Helvetica,sans-Serif" font-size="10.00" fill="#000000">View Favorites</text>
</g>
<!-- A3&#45;&gt;A16 -->
<g id="edge14" class="edge">
<title>A3&#45;&gt;A16</title>
<path fill="none" stroke="#000000" d="M300.1108,-645.0609C321.5133,-634.7022 348.0174,-622.2547 372.1518,-612 382.9897,-607.395 394.9056,-602.7285 405.8401,-598.6"/>
</g>
<!-- A17 -->
<g id="node18" class="node">
<title>A17</title>
<ellipse fill="none" stroke="#000000" cx="443.4197" cy="-531" rx="48.6643" ry="18"/>
<text text-anchor="middle" x="443.4197" y="-528" font-family="Helvetica,sans-Serif" font-size="10.00" fill="#000000">List Product</text>
</g>
<!-- A4&#45;&gt;A17 -->
<g id="edge15" class="edge">
<title>A4&#45;&gt;A17</title>
<path fill="none" stroke="#000000" d="M299.976,-510.1267C329.1657,-514.3743 368.0092,-520.0266 397.9128,-524.378"/>
</g>
<!-- A4&#45;&gt;A18 -->
<g id="edge16" class="edge">
<title>A4&#45;&gt;A18</title>
<path fill="none" stroke="#000000" d="M300.0751,-477.7387C307.8218,-472.0287 315.5394,-465.6804 322.1518,-459 349.8163,-431.051 346.5661,-415.8637 372.1518,-386 387.8412,-367.6873 408.0527,-349.0758 422.9424,-336.1314"/>
</g>
<!-- A19 -->
<g id="node20" class="node">
<title>A19</title>
<ellipse fill="none" stroke="#000000" cx="443.4197" cy="-477" rx="46.6485" ry="18"/>
<text text-anchor="middle" x="443.4197" y="-474" font-family="Helvetica,sans-Serif" font-size="10.00" fill="#000000">View Sales</text>
</g>
<!-- A4&#45;&gt;A19 -->
<g id="edge17" class="edge">
<title>A4&#45;&gt;A19</title>
<path fill="none" stroke="#000000" d="M299.976,-497.8733C329.7004,-493.5479 369.4353,-487.7659 399.5467,-483.3842"/>
</g>
<!-- A20 -->
<g id="node21" class="node">
<title>A20</title>
<ellipse fill="none" stroke="#000000" cx="443.4197" cy="-418" rx="71.0365" ry="22.7556"/>
<text text-anchor="middle" x="443.4197" y="-421" font-family="Helvetica,sans-Serif" font-size="10.00" fill="#000000">Mark Product as</text>
<text text-anchor="middle" x="443.4197" y="-409" font-family="Helvetica,sans-Serif" font-size="10.00" fill="#000000">Sold</text>
</g>
<!-- A4&#45;&gt;A20 -->
<g id="edge18" class="edge">
<title>A4&#45;&gt;A20</title>
<path fill="none" stroke="#000000" d="M300.1126,-483.8012C321.6306,-473.5725 348.2356,-461.0186 372.1518,-450 381.7602,-445.5733 392.1296,-440.8734 401.9042,-436.4777"/>
</g>
</g>
</svg>
