<?xml version="1.0" encoding="UTF-8"?>
<svg id="Layer_1" xmlns="http://www.w3.org/2000/svg" viewBox="0 0 409.72 379.44">
  <path d="M405.38,365.72c-13.54,6.62-43.98,13.72-82.51,13.72-117.55,0-177.09-79.03-177.09-183.91C145.78,65.92,231.92,0,331.21,0c37.94,0,66.22,8.45,78.51,15.32l-15.48,64.24c-14.13-6.25-33.44-11.88-58.99-11.88-58.26,0-105.29,38.63-105.29,123.29,0,78.09,40.54,120.89,105.5,120.89,21.47,0,44.92-4.31,59.11-9.96l10.79,63.83Z"/>
  <path d="M205.84,379.44l-31.04-68.88c-11.82-25.16-20.33-45.24-29.6-67.81h-1.18c-7.37,22.57-15.71,43.26-25.99,68.09l-27.94,68.59H0l97.72-192.24L3.53.89h91.88l29.83,69.21c9.54,22.07,16.92,41.02,24.94,62.37h1.36c8.23-23.69,14.59-40.98,22.85-62.45L202.39.89l123.65-.45-129.11,186.15,122.11,192.85h-113.19Z"/>
</svg>